<svg width="161" height="22" viewBox="0 0 161 22" fill="none" xmlns="http://www.w3.org/2000/svg">
<g clip-path="url(#clip0_1030_8100)">
<path d="M33.7864 11.0232C33.7864 7.24845 36.6164 4.56726 40.5801 4.56726C43.1298 4.56726 45.1481 5.60803 46.0348 7.64483C46.0368 7.65093 42.7762 8.53516 42.7762 8.53516C42.168 7.86029 41.4017 7.54929 40.5564 7.54929C38.7672 7.54929 37.3629 8.83194 37.3629 11.0212C37.3629 13.2105 38.7672 14.4931 40.5564 14.4931C41.3997 14.4931 42.162 14.1984 42.7683 13.5235L46.0269 14.3244C45.1382 16.3144 43.1278 17.4751 40.5781 17.4751C36.6164 17.4751 33.7844 14.796 33.7844 11.0192L33.7864 11.0232Z" fill="white"/>
<path d="M60.3551 10.1149V17.2925H56.8239V10.6739C56.8239 8.64727 55.9175 7.71424 54.3554 7.71424C52.6569 7.71424 51.4345 8.78752 51.4345 11.0947V17.2946H47.9033V0.882208L51.4345 0V6.05959C52.3864 5.07981 53.7451 4.56756 55.3073 4.56756C58.1828 4.56756 60.3571 6.29132 60.3571 10.1149H60.3551Z" fill="white"/>
<path d="M75.7716 4.16897V17.2924H72.3984V15.8471C71.5157 16.9427 70.2241 17.4794 68.5948 17.4794C65.1525 17.4794 62.5042 14.9628 62.5042 11.0234C62.5042 7.08391 65.1525 4.56739 68.5948 4.56739C70.0898 4.56739 71.3576 5.05727 72.2404 6.08177V5.06134L75.7716 4.16693V4.16897ZM72.3076 11.0234C72.3076 8.85646 70.9488 7.55145 69.205 7.55145C67.4612 7.55145 66.0807 8.85646 66.0807 11.0234C66.0807 13.1903 67.4394 14.4952 69.205 14.4952C70.9706 14.4952 72.3076 13.1903 72.3076 11.0234Z" fill="white"/>
<path d="M86.3488 4.5676V7.92365C86.0546 7.9013 85.8274 7.87691 85.5568 7.87691C83.6096 7.87691 82.318 8.97255 82.318 11.3733V17.2925H78.7869V5.00871L82.16 4.16919V6.40927C83.0211 5.19775 84.4687 4.5676 86.3488 4.5676Z" fill="white"/>
<path d="M100.837 4.16919V15.1947C100.837 19.8558 98.3916 22.0004 93.9997 22.0004C91.6914 22.0004 89.4475 21.417 88.0216 20.2766L89.4258 17.6665C90.4662 18.5285 92.1651 19.0875 93.7273 19.0875C96.2172 19.0875 97.3057 17.9227 97.3057 15.6622V15.1256C96.3772 16.1746 95.0406 16.6868 93.4567 16.6868C90.0834 16.6868 87.366 14.2861 87.366 10.6272C87.366 6.96827 90.0834 4.5676 93.4567 4.5676C95.1547 4.5676 96.5588 5.151 97.4873 6.36251V5.01888L100.839 4.17122L100.837 4.16919ZM97.3489 10.6272C97.3489 8.78553 96.0141 7.55166 94.1561 7.55166C92.2972 7.55166 90.9408 8.78757 90.9408 10.6272C90.9408 12.4668 92.299 13.7027 94.1561 13.7027C96.0123 13.7027 97.3489 12.4668 97.3489 10.6272Z" fill="white"/>
<path d="M107.018 13.0899C107.601 14.0696 108.651 14.5676 110.062 14.5676C111.353 14.5676 112.282 14.1713 113.119 13.3562L114.999 15.4539C113.867 16.7833 112.169 17.4825 109.973 17.4825C105.761 17.4825 103.021 14.7566 103.021 11.0266C103.021 7.29652 105.784 4.57062 109.542 4.57062C112.909 4.57062 115.692 6.88388 115.832 10.736L107.021 13.0919M106.487 10.9392L112.439 9.47764C112.1 8.19499 111.014 7.32295 109.542 7.32295C107.777 7.32295 106.487 8.47754 106.487 10.9392Z" fill="white"/>
<path d="M136.642 13.0899C137.224 14.0696 138.275 14.5676 139.684 14.5676C140.976 14.5676 141.905 14.1713 142.742 13.3562L144.622 15.4539C143.49 16.7833 141.792 17.4825 139.596 17.4825C135.383 17.4825 132.644 14.7566 132.644 11.0266C132.644 7.29652 135.407 4.57062 139.166 4.57062C142.533 4.57062 145.315 6.88388 145.455 10.736L136.643 13.0919M136.11 10.9392L142.063 9.47764C141.723 8.19499 140.636 7.32295 139.166 7.32295C137.399 7.32295 136.11 8.47754 136.11 10.9392Z" fill="white"/>
<path d="M150.802 13.0899C151.386 14.0696 152.436 14.5676 153.846 14.5676C155.138 14.5676 156.066 14.1713 156.903 13.3562L158.784 15.4539C157.652 16.7833 155.953 17.4825 153.757 17.4825C149.545 17.4825 146.805 14.7566 146.805 11.0266C146.805 7.29652 149.568 4.57062 153.327 4.57062C156.694 4.57062 159.477 6.88388 159.617 10.736L150.805 13.0919M150.271 10.9392L156.224 9.47764C155.884 8.19499 154.798 7.32295 153.327 7.32295C151.561 7.32295 150.271 8.47754 150.271 10.9392Z" fill="white"/>
<path d="M131.265 11.0236C131.265 14.963 128.617 17.4795 125.196 17.4795C123.565 17.4795 122.254 16.9428 121.369 15.8472V17.2925H117.996V0.888306L121.527 0V6.08195C122.434 5.05542 123.678 4.56756 125.194 4.56756C128.613 4.56756 131.264 7.08409 131.264 11.0236H131.265ZM127.687 11.0236C127.687 8.85664 126.352 7.55162 124.584 7.55162C122.817 7.55162 121.482 8.85664 121.482 11.0236C121.482 13.1905 122.819 14.4954 124.584 14.4954C126.349 14.4954 127.687 13.1905 127.687 11.0236Z" fill="white"/>
<path d="M7.22095 11.0013L21.3238 7.53956V0.0123291H14.0107L7.22095 11.0013Z" fill="white"/>
<path d="M0.230713 10.8689C0.230713 11.7695 0.337358 12.6435 0.538799 13.481L7.21993 11.001L0.483502 8.49878C0.319584 9.26102 0.230713 10.0538 0.230713 10.8669V10.8689Z" fill="white"/>
<path d="M2.71533 3.87015L7.21814 11.001L9.29379 0.119751C6.66516 0.499873 4.34858 1.87807 2.71533 3.87015Z" fill="white"/>
<path d="M7.22095 11.0012L21.3238 14.461V21.9882H14.0107L7.22095 11.0012Z" fill="white"/>
<path d="M2.71584 18.1298L7.21865 10.999L9.29234 21.8781C6.66369 21.498 4.34713 20.1198 2.71387 18.1278L2.71584 18.1298Z" fill="white"/>
</g>
<defs>
<clipPath id="clip0_1030_8100">
<rect width="160" height="22" fill="white" transform="translate(0.230713)"/>
</clipPath>
</defs>
</svg>
